<svg width="19" height="16" viewBox="0 0 19 16" fill="none" xmlns="http://www.w3.org/2000/svg">
<path d="M0.490234 7.94922C0.490234 7.76042 0.565104 7.59766 0.714844 7.46094L7.23828 0.927734C7.32943 0.830078 7.41732 0.764974 7.50195 0.732422C7.58659 0.693359 7.67448 0.673828 7.76562 0.673828C7.94792 0.673828 8.10091 0.735677 8.22461 0.859375C8.34831 0.976563 8.41016 1.12305 8.41016 1.29883C8.41016 1.38997 8.39388 1.47786 8.36133 1.5625C8.33529 1.64063 8.29297 1.70898 8.23437 1.76758L5.29492 4.73633L1.96484 7.83203L1.80859 7.43164L4.68945 7.29492L17.9805 7.29492C18.1693 7.29492 18.3223 7.35677 18.4395 7.48047C18.5632 7.60417 18.625 7.76042 18.625 7.94922C18.625 8.13802 18.5632 8.29427 18.4395 8.41797C18.3223 8.54167 18.1693 8.60352 17.9805 8.60352L4.68945 8.60352L1.80859 8.4668L1.96484 8.07617L5.29492 11.1621L8.23437 14.1309C8.29297 14.1829 8.33529 14.2513 8.36133 14.3359C8.39388 14.4206 8.41016 14.5085 8.41016 14.5996C8.41016 14.7754 8.34831 14.9219 8.22461 15.0391C8.10091 15.1628 7.94792 15.2246 7.76562 15.2246C7.58984 15.2246 7.43034 15.1562 7.28711 15.0195L0.714844 8.4375C0.565104 8.29427 0.490234 8.13151 0.490234 7.94922Z" fill="black"/>
</svg>
