<svg width="14" height="13" viewBox="0 0 14 13" fill="none" xmlns="http://www.w3.org/2000/svg">
<path d="M1.24219 12.4062C1.1276 12.2969 1.05208 12.1667 1.01562 12.0156C0.979167 11.8646 0.979167 11.7135 1.01562 11.5625C1.05729 11.4115 1.13281 11.2839 1.24219 11.1797L6.03906 6.36719L1.24219 1.5625C1.13281 1.45833 1.0599 1.33073 1.02344 1.17969C0.986979 1.02865 0.986979 0.877604 1.02344 0.726562C1.0599 0.575521 1.13281 0.445312 1.24219 0.335938C1.35677 0.221354 1.48958 0.145833 1.64062 0.109375C1.79167 0.0729167 1.94271 0.0729167 2.09375 0.109375C2.24479 0.145833 2.375 0.21875 2.48438 0.328125L7.28906 5.13281L12.0859 0.328125C12.1953 0.213542 12.3255 0.140625 12.4766 0.109375C12.6276 0.0729167 12.776 0.0729167 12.9219 0.109375C13.0729 0.145833 13.2083 0.221354 13.3281 0.335938C13.4375 0.445312 13.5104 0.575521 13.5469 0.726562C13.5885 0.877604 13.5885 1.02865 13.5469 1.17969C13.5104 1.32552 13.4375 1.45573 13.3281 1.57031L8.53125 6.36719L13.3281 11.1719C13.4375 11.2865 13.5104 11.4193 13.5469 11.5703C13.5833 11.7161 13.5833 11.8646 13.5469 12.0156C13.5104 12.1667 13.4375 12.2969 13.3281 12.4062C13.2135 12.5208 13.0807 12.5964 12.9297 12.6328C12.7786 12.6693 12.6276 12.6693 12.4766 12.6328C12.3255 12.5964 12.1953 12.5234 12.0859 12.4141L7.28906 7.60938L2.48438 12.4141C2.375 12.5234 2.24479 12.5964 2.09375 12.6328C1.94792 12.6693 1.79688 12.6693 1.64062 12.6328C1.48958 12.5964 1.35677 12.5208 1.24219 12.4062Z" fill="black"/>
</svg>
