<svg width="100" height="100" viewBox="0 0 100 100" fill="none" xmlns="http://www.w3.org/2000/svg">
<circle cx="50" cy="50" r="50" fill="#20B154"/>
<path d="M44.883 68C46.3162 68 47.4336 67.541 48.211 66.5832L70.9484 37.6893C71.5314 36.9709 71.75 36.3324 71.75 35.7138C71.75 34.1374 70.3411 33 68.3734 33C67.013 33 66.1871 33.3991 65.3612 34.4766L44.7858 61.2554L34.2431 50.2805C33.4414 49.4624 32.6155 49.1032 31.4252 49.1032C29.4332 49.1032 28 50.2605 28 51.8569C28 52.5553 28.2915 53.2138 28.996 53.9122L41.5793 66.6431C42.5024 67.581 43.5226 68 44.883 68Z" fill="white"/>
</svg>
