<svg width="46" height="46" viewBox="0 0 46 46" fill="none" xmlns="http://www.w3.org/2000/svg">
<path d="M13.2439 4.73584C13.2439 4.73584 16.421 2.937 17.3873 3.58042C17.7798 3.84205 17.7189 4.35779 17.4382 4.67325C17.3053 4.82221 17.1414 4.93863 16.9824 5.06006C16.1775 5.67219 15.477 6.43454 14.7641 7.15057C14.0425 7.87536 13.3308 8.61142 12.644 9.37002C11.9422 10.1449 11.3138 10.9823 10.6543 11.7935C10.0953 12.4795 9.4085 13.4171 8.54654 13.7275C8.40743 13.7776 8.20374 13.7764 8.11928 13.6324C8.02737 13.4759 8.15406 13.1968 8.20871 13.0403C8.75768 11.4668 9.59853 10.0084 10.6282 8.70656C10.7809 8.51253 10.9387 8.32351 11.1001 8.13699C11.1001 8.13699 12.5372 6.7913 11.7882 6.02395C11.7882 6.02395 11.2032 5.68345 13.2464 4.73584H13.2439Z" fill="#449DBE"/>
<path d="M25.692 42.5712C25.692 42.5712 23.1856 38.3376 24.3406 31.4289C24.3406 31.4289 25.3231 26.7246 26.626 23.3322C26.626 23.3322 29.5907 15.2681 26.3801 10.0193C26.3801 10.0193 30.4589 13.0074 29.2789 21.7224C29.2789 21.7224 29.1647 22.7289 28.771 24.3474C28.771 24.3474 25.692 35.6049 28.5089 38.1811C28.5089 38.1811 32.1282 34.253 33.7006 24.5953C33.7006 24.5953 36.207 10.7791 20.9748 2.50848C20.9748 2.50848 20.6879 2.42586 20.9748 2.96289C20.9748 2.96289 25.7901 9.29326 24.4139 15.6812C24.4139 15.6812 23.8165 18.9659 22.4776 21.7399C22.4776 21.7399 18.3218 30.6866 19.0583 36.4311C19.0583 36.4311 19.6967 42.7202 25.692 42.5712Z" fill="#20B154"/>
<path d="M42.4597 25.4492C42.4597 25.4492 45.0518 12.2139 31.6379 4.53906C31.6379 4.53906 31.2281 6.86617 32.5881 7.37815C32.5881 7.37815 36.3551 8.97921 36.5191 10.3825C36.5191 10.3825 37.1413 13.2053 37.9598 13.8325C37.9598 13.8325 38.5821 14.7237 37.7959 15.4836C37.7959 15.4836 37.006 16.4988 37.9636 16.9069C37.9636 16.9069 39.7123 18.1574 40.891 18.6857C40.891 18.6857 41.3655 19.3955 41.5294 21.9041C41.5294 21.9041 41.7468 25.6595 42.4584 25.4492H42.4597Z" fill="#20B154"/>
<path d="M40.5875 26.5896C39.1244 25.5543 37.0751 27.0628 36.043 28.113C35.2493 28.9192 34.6457 30.0646 34.2346 31.1111C33.734 32.3854 33.508 33.7624 33.5713 35.1306C33.6061 35.8604 33.7117 36.6215 33.893 37.3301C33.9315 37.479 33.9911 37.628 34.0781 37.7519C34.1439 37.8483 34.2271 37.9297 34.3302 37.986C34.4892 38.0724 34.678 38.0886 34.8593 38.0774C36.0032 38.0048 36.7994 37.1736 37.4787 36.3386C38.2413 35.4035 38.9617 34.4321 39.6349 33.4282C40.2745 32.4743 40.8819 31.4716 41.1638 30.355C41.4619 29.1783 41.7302 27.397 40.5875 26.5896ZM39.7939 30.3538C39.5902 31.4741 39.0027 32.8323 37.9507 33.3944C37.7185 33.5183 37.3968 33.5822 37.1446 33.497C37.0714 33.4732 37.0006 33.4332 36.9583 33.3693C36.9422 33.3456 36.931 33.3193 36.9223 33.2917C36.9087 33.2479 36.9037 33.2029 36.9012 33.1578C36.8689 32.6471 37.0031 32.0662 37.1434 31.5768C37.3794 30.7618 37.793 29.8768 38.5953 29.4988C38.7282 29.4362 38.8661 29.3886 39.0089 29.3548C39.225 29.3035 39.4175 29.2835 39.6026 29.4274C39.8759 29.6377 39.8485 30.0496 39.7939 30.3538Z" fill="#449DBE"/>
<path d="M20.6394 10.9788C20.8704 11.3631 20.9548 11.8939 20.8903 12.3233C20.8393 12.6563 20.6754 12.9542 20.4183 13.1695C20.4183 13.1695 18.8459 14.4075 18.0597 16.9825C18.0025 17.1715 17.9317 17.3568 17.8585 17.5395C17.6958 17.9401 17.5033 18.3319 17.2648 18.6925C17.0263 19.053 16.7096 19.436 16.3047 19.6463C16.1159 19.744 15.9072 19.8003 15.6949 19.799C15.4502 19.7965 15.085 19.7452 14.9323 19.5274C14.8913 19.4698 14.8577 19.4072 14.8254 19.3446C14.7012 19.098 14.6242 18.8276 14.5721 18.5573C14.4802 18.0816 14.4653 17.5921 14.4913 17.1089C14.5311 16.3553 14.6689 15.6093 14.854 14.8795C14.9298 14.5828 15.0192 14.2899 15.1037 13.9957C15.1037 13.9957 15.3906 12.9892 16.5531 11.9152C16.9282 11.5684 16.9679 11.0277 17.158 10.5795C17.271 10.3116 17.4138 10.0525 17.5716 9.80965C17.9951 9.15872 18.5776 8.59666 19.3029 8.30624C19.4818 8.23488 19.6681 8.17981 19.8569 8.1435C20.0258 8.11096 20.2047 8.04711 20.3773 8.06589C20.5251 8.08216 20.5984 8.23488 20.6195 8.36758C20.6431 8.51654 20.6083 8.67051 20.5586 8.81071C20.4928 8.99348 20.3649 9.14745 20.3065 9.33021C20.2568 9.48293 20.2618 9.67321 20.2643 9.83219C20.2705 10.1965 20.3562 10.5783 20.5723 10.8762C20.5959 10.9087 20.6195 10.9438 20.6406 10.9788H20.6394Z" fill="#20B154"/>
<path d="M12.2993 21.4317C12.3726 21.5544 12.4571 21.6721 12.5428 21.7872C12.9887 22.3856 13.4793 22.9527 14.0282 23.4584C14.9622 24.3209 16.0987 25.0582 16.6005 26.2311C16.7309 26.5378 16.8067 26.9134 16.6179 27.1875C16.5222 27.3265 16.3707 27.4166 16.2241 27.4992C15.6913 27.7971 15.1349 28.055 14.5623 28.2666C14.1264 28.4281 13.6705 28.5645 13.2073 28.5407C12.9762 28.5295 12.7266 28.4644 12.5863 28.2778C12.4372 28.0801 12.4546 27.8047 12.4968 27.5606C12.5602 27.1913 12.6645 26.8282 12.8073 26.4828C12.9328 26.1773 13.0905 25.8769 13.1278 25.5477C13.2035 24.8704 12.739 24.2358 12.1739 23.8602C11.8497 23.6449 11.4858 23.4872 11.2014 23.2206C10.3096 22.3869 10.4959 20.7245 11.3952 19.9621C11.5516 19.8294 11.7516 19.7243 11.9528 19.7556C11.9926 19.7618 12.0336 19.7743 12.0596 19.8056C12.0919 19.8444 12.0932 19.8995 12.0907 19.9496C12.077 20.2838 12.0199 20.6218 12.0944 20.9473C12.1342 21.12 12.2087 21.279 12.2993 21.4317Z" fill="#20B154"/>
<path d="M5.64454 11.8919C5.64454 11.8919 3.90073 17.2897 4.78505 17.5125C4.78505 17.5125 5.13779 17.8592 7.08653 16.8853C7.08653 16.8853 9.08495 15.7963 8.41301 17.694C8.41301 17.694 6.03826 22.6874 2.72205 24.445C2.72205 24.445 1.64894 17.8254 5.64578 11.8906L5.64454 11.8919Z" fill="#449DBE"/>
<path d="M3.31968 28.2403C3.28615 28.4494 3.43892 28.701 3.51468 28.905C3.94194 30.063 4.43999 31.1946 5.01877 32.2837C5.49944 33.1862 6.03599 34.0587 6.63465 34.8862C8.09279 36.9028 9.9285 38.6616 12.0809 39.8959C12.1828 39.9547 12.2958 40.0135 12.4126 39.9985C12.497 39.9873 12.5703 39.9384 12.6398 39.8896C14.4954 38.594 15.7039 36.5636 16.6975 34.5194C16.9497 33.9999 17.1944 33.3827 16.9385 32.8645C16.8205 32.6254 16.6081 32.4439 16.3734 32.3225C15.6741 31.9607 14.7997 32.1084 14.1191 32.504C13.4385 32.8995 12.9094 33.5104 12.4001 34.115C12.3095 34.2227 12.2126 34.3354 12.0797 34.3842C11.9629 34.4267 11.8338 34.413 11.7133 34.3879C11.3419 34.3116 10.9966 34.12 10.7234 33.8559C10.5731 33.7107 10.0378 33.1061 10.2067 32.882C10.285 32.7781 10.4154 32.7093 10.4998 32.6004C10.598 32.4752 10.6762 32.335 10.7346 32.186C10.8501 31.8893 10.8811 31.5589 10.8079 31.2472C10.6613 30.63 10.1086 30.1331 9.48261 30.0554C9.2814 30.0304 9.06653 30.0479 8.89389 30.1543C8.69517 30.2758 8.57718 30.4948 8.40453 30.6513C8.08658 30.938 7.57238 30.9755 7.21716 30.7364C6.86194 30.4973 6.69923 30.0041 6.84082 29.5985C6.90914 29.4045 7.03458 29.2368 7.15878 29.074C7.53636 28.5771 7.91393 28.0814 8.29151 27.5844C8.6753 27.0787 9.0802 26.434 8.82558 25.8519C8.6517 25.4526 8.21078 25.2347 7.78352 25.1672C6.84207 25.0169 5.88446 25.44 5.15291 26.0572C4.68964 26.4465 4.29716 26.9109 3.92455 27.3866C3.73824 27.6244 3.53952 27.8598 3.36936 28.1089C3.34204 28.1502 3.32589 28.1928 3.31844 28.2391L3.31968 28.2403Z" fill="#20B154"/>
</svg>
